<svg width="391" height="40" viewBox="0 0 391 40" fill="none" xmlns="http://www.w3.org/2000/svg">
<path d="M21.64 39L19.912 31.848H10.216L8.53601 39H0.376007L10.408 5.73599H19.96L29.992 39H21.64ZM11.56 26.136H18.568L15.064 11.448L11.56 26.136Z" fill="#141414"/>
<path d="M47.2165 12.696C49.4245 12.696 51.1525 13.368 52.4005 14.712C53.6485 16.056 54.2725 17.944 54.2725 20.376V39H46.6885V21.672C46.6885 20.392 46.4805 19.512 46.0645 19.032C45.6805 18.52 45.0885 18.264 44.2885 18.264C42.7525 18.264 41.2805 19.368 39.8725 21.576V39H32.2885V13.512H38.9125L39.4405 16.536C40.5285 15.256 41.6965 14.296 42.9445 13.656C44.2245 13.016 45.6485 12.696 47.2165 12.696Z" fill="#141414"/>
<path d="M82.8396 3.38399V39H76.1196L75.7356 36.024C73.9436 38.552 71.5276 39.816 68.4876 39.816C65.3196 39.816 62.9036 38.6 61.2396 36.168C59.6076 33.736 58.7916 30.408 58.7916 26.184C58.7916 23.592 59.2236 21.272 60.0876 19.224C60.9516 17.176 62.1676 15.576 63.7356 14.424C65.3356 13.272 67.1596 12.696 69.2076 12.696C71.6396 12.696 73.6556 13.496 75.2556 15.096V2.56799L82.8396 3.38399ZM70.8396 34.248C72.5996 34.248 74.0716 33.288 75.2556 31.368V20.376C74.6476 19.64 74.0236 19.096 73.3836 18.744C72.7756 18.392 72.0716 18.216 71.2716 18.216C69.8636 18.216 68.7436 18.872 67.9116 20.184C67.0796 21.496 66.6636 23.512 66.6636 26.232C66.6636 29.208 67.0156 31.288 67.7196 32.472C68.4556 33.656 69.4956 34.248 70.8396 34.248Z" fill="#141414"/>
<path d="M110.997 25.752C110.997 26.808 110.949 27.72 110.853 28.488H95.0609C95.3169 30.632 95.9249 32.136 96.8849 33C97.8449 33.864 99.1729 34.296 100.869 34.296C101.893 34.296 102.885 34.12 103.845 33.768C104.805 33.384 105.845 32.808 106.965 32.04L110.085 36.264C107.109 38.632 103.797 39.816 100.149 39.816C96.0209 39.816 92.8529 38.6 90.6449 36.168C88.4369 33.736 87.3329 30.472 87.3329 26.376C87.3329 23.784 87.7969 21.464 88.7249 19.416C89.6529 17.336 91.0129 15.704 92.8049 14.52C94.5969 13.304 96.7409 12.696 99.2369 12.696C102.917 12.696 105.797 13.848 107.877 16.152C109.957 18.456 110.997 21.656 110.997 25.752ZM103.557 23.592C103.493 19.688 102.117 17.736 99.4289 17.736C98.1169 17.736 97.0929 18.216 96.3569 19.176C95.6529 20.136 95.2209 21.72 95.0609 23.928H103.557V23.592Z" fill="#141414"/>
<path d="M129.081 12.792C130.009 12.792 130.857 12.904 131.625 13.128L130.425 20.472C129.465 20.248 128.697 20.136 128.121 20.136C126.617 20.136 125.465 20.664 124.665 21.72C123.897 22.744 123.289 24.296 122.841 26.376V39H115.257V13.512H121.881L122.505 18.456C123.081 16.696 123.945 15.32 125.097 14.328C126.281 13.304 127.609 12.792 129.081 12.792Z" fill="#141414"/>
<path d="M142.936 12.696C144.76 12.696 146.472 12.968 148.072 13.512C149.672 14.056 151.08 14.824 152.296 15.816L149.512 20.088C147.432 18.776 145.336 18.12 143.224 18.12C142.232 18.12 141.464 18.296 140.92 18.648C140.408 18.968 140.152 19.432 140.152 20.04C140.152 20.52 140.264 20.92 140.488 21.24C140.744 21.528 141.24 21.832 141.976 22.152C142.712 22.472 143.848 22.856 145.384 23.304C148.04 24.072 150.008 25.08 151.288 26.328C152.6 27.544 153.256 29.24 153.256 31.416C153.256 33.144 152.76 34.648 151.768 35.928C150.776 37.176 149.416 38.136 147.688 38.808C145.96 39.48 144.04 39.816 141.928 39.816C139.784 39.816 137.784 39.48 135.928 38.808C134.104 38.136 132.552 37.208 131.272 36.024L134.968 31.896C137.112 33.56 139.368 34.392 141.736 34.392C142.888 34.392 143.784 34.184 144.424 33.768C145.096 33.352 145.432 32.76 145.432 31.992C145.432 31.384 145.304 30.904 145.048 30.552C144.792 30.2 144.296 29.88 143.56 29.592C142.824 29.272 141.656 28.888 140.056 28.44C137.528 27.704 135.64 26.68 134.392 25.368C133.144 24.056 132.52 22.424 132.52 20.472C132.52 19 132.936 17.688 133.768 16.536C134.632 15.352 135.848 14.424 137.416 13.752C139.016 13.048 140.856 12.696 142.936 12.696Z" fill="#141414"/>
<path d="M168.204 12.696C172.108 12.696 175.164 13.896 177.372 16.296C179.58 18.664 180.684 21.992 180.684 26.28C180.684 29 180.172 31.384 179.148 33.432C178.156 35.448 176.716 37.016 174.828 38.136C172.972 39.256 170.764 39.816 168.204 39.816C164.332 39.816 161.276 38.632 159.036 36.264C156.828 33.864 155.724 30.52 155.724 26.232C155.724 23.512 156.22 21.144 157.212 19.128C158.236 17.08 159.676 15.496 161.532 14.376C163.42 13.256 165.644 12.696 168.204 12.696ZM168.204 18.264C166.668 18.264 165.516 18.92 164.748 20.232C163.98 21.512 163.596 23.512 163.596 26.232C163.596 29.016 163.964 31.048 164.7 32.328C165.468 33.608 166.636 34.248 168.204 34.248C169.74 34.248 170.892 33.608 171.66 32.328C172.428 31.016 172.812 29 172.812 26.28C172.812 23.496 172.428 21.464 171.66 20.184C170.924 18.904 169.772 18.264 168.204 18.264Z" fill="#141414"/>
<path d="M200.123 12.696C202.331 12.696 204.059 13.368 205.307 14.712C206.555 16.056 207.179 17.944 207.179 20.376V39H199.595V21.672C199.595 20.392 199.387 19.512 198.971 19.032C198.587 18.52 197.995 18.264 197.195 18.264C195.659 18.264 194.187 19.368 192.779 21.576V39H185.195V13.512H191.819L192.347 16.536C193.435 15.256 194.603 14.296 195.851 13.656C197.131 13.016 198.555 12.696 200.123 12.696Z" fill="#141414"/>
<path d="M250.161 5.73599L239.505 26.52V39H231.633V26.568L220.977 5.73599H229.569L235.713 20.376L241.857 5.73599H250.161Z" fill="#141414"/>
<path d="M260.641 12.696C264.545 12.696 267.601 13.896 269.809 16.296C272.017 18.664 273.121 21.992 273.121 26.28C273.121 29 272.609 31.384 271.585 33.432C270.593 35.448 269.153 37.016 267.265 38.136C265.409 39.256 263.201 39.816 260.641 39.816C256.769 39.816 253.713 38.632 251.473 36.264C249.265 33.864 248.161 30.52 248.161 26.232C248.161 23.512 248.657 21.144 249.649 19.128C250.673 17.08 252.113 15.496 253.969 14.376C255.857 13.256 258.081 12.696 260.641 12.696ZM260.641 18.264C259.105 18.264 257.953 18.92 257.185 20.232C256.417 21.512 256.033 23.512 256.033 26.232C256.033 29.016 256.401 31.048 257.137 32.328C257.905 33.608 259.073 34.248 260.641 34.248C262.177 34.248 263.329 33.608 264.097 32.328C264.865 31.016 265.249 29 265.249 26.28C265.249 23.496 264.865 21.464 264.097 20.184C263.361 18.904 262.209 18.264 260.641 18.264Z" fill="#141414"/>
<path d="M286.608 12.696C288.432 12.696 290.144 12.968 291.744 13.512C293.344 14.056 294.752 14.824 295.968 15.816L293.184 20.088C291.104 18.776 289.008 18.12 286.896 18.12C285.904 18.12 285.136 18.296 284.592 18.648C284.08 18.968 283.824 19.432 283.824 20.04C283.824 20.52 283.936 20.92 284.16 21.24C284.416 21.528 284.912 21.832 285.648 22.152C286.384 22.472 287.52 22.856 289.056 23.304C291.712 24.072 293.68 25.08 294.96 26.328C296.272 27.544 296.928 29.24 296.928 31.416C296.928 33.144 296.432 34.648 295.44 35.928C294.448 37.176 293.088 38.136 291.36 38.808C289.632 39.48 287.712 39.816 285.6 39.816C283.456 39.816 281.456 39.48 279.6 38.808C277.776 38.136 276.224 37.208 274.944 36.024L278.64 31.896C280.784 33.56 283.04 34.392 285.408 34.392C286.56 34.392 287.456 34.184 288.096 33.768C288.768 33.352 289.104 32.76 289.104 31.992C289.104 31.384 288.976 30.904 288.72 30.552C288.464 30.2 287.968 29.88 287.232 29.592C286.496 29.272 285.328 28.888 283.728 28.44C281.2 27.704 279.312 26.68 278.064 25.368C276.816 24.056 276.192 22.424 276.192 20.472C276.192 19 276.608 17.688 277.44 16.536C278.304 15.352 279.52 14.424 281.088 13.752C282.688 13.048 284.528 12.696 286.608 12.696Z" fill="#141414"/>
<path d="M315.763 12.696C317.971 12.696 319.699 13.368 320.947 14.712C322.195 16.056 322.819 17.944 322.819 20.376V39H315.235V21.672C315.235 20.392 315.027 19.512 314.611 19.032C314.195 18.52 313.603 18.264 312.835 18.264C311.299 18.264 309.827 19.352 308.419 21.528V39H300.835V3.38399L308.419 2.61599V16.248C309.475 15.064 310.595 14.184 311.779 13.608C312.963 13 314.291 12.696 315.763 12.696Z" fill="#141414"/>
<path d="M336.122 13.512V39H328.539V13.512H336.122ZM332.283 0.071991C333.595 0.071991 334.667 0.487991 335.499 1.31999C336.363 2.11999 336.794 3.14399 336.794 4.39199C336.794 5.63999 336.363 6.67999 335.499 7.51199C334.667 8.31199 333.595 8.71199 332.283 8.71199C330.971 8.71199 329.898 8.31199 329.066 7.51199C328.234 6.67999 327.819 5.63999 327.819 4.39199C327.819 3.14399 328.234 2.11999 329.066 1.31999C329.898 0.487991 330.971 0.071991 332.283 0.071991Z" fill="#141414"/>
<path d="M370.261 12.696C372.277 12.696 373.893 13.384 375.109 14.76C376.325 16.104 376.933 17.976 376.933 20.376V39H369.349V21.672C369.349 19.4 368.629 18.264 367.189 18.264C366.389 18.264 365.685 18.536 365.077 19.08C364.469 19.624 363.877 20.456 363.301 21.576V39H355.717V21.672C355.717 19.4 354.997 18.264 353.557 18.264C352.789 18.264 352.085 18.552 351.445 19.128C350.837 19.672 350.245 20.488 349.669 21.576V39H342.085V13.512H348.709L349.237 16.488C350.229 15.208 351.317 14.264 352.501 13.656C353.717 13.016 355.093 12.696 356.629 12.696C358.069 12.696 359.301 13.048 360.325 13.752C361.381 14.456 362.149 15.448 362.629 16.728C363.653 15.352 364.773 14.344 365.989 13.704C367.237 13.032 368.661 12.696 370.261 12.696Z" fill="#141414"/>
<path d="M390.216 13.512V39H382.632V13.512H390.216ZM386.376 0.071991C387.688 0.071991 388.76 0.487991 389.592 1.31999C390.456 2.11999 390.888 3.14399 390.888 4.39199C390.888 5.63999 390.456 6.67999 389.592 7.51199C388.76 8.31199 387.688 8.71199 386.376 8.71199C385.064 8.71199 383.992 8.31199 383.16 7.51199C382.328 6.67999 381.912 5.63999 381.912 4.39199C381.912 3.14399 382.328 2.11999 383.16 1.31999C383.992 0.487991 385.064 0.071991 386.376 0.071991Z" fill="#141414"/>
</svg>
